<svg xmlns="http://www.w3.org/2000/svg" xmlns:xlink="http://www.w3.org/1999/xlink" width="61.887" height="26.372" viewBox="0 0 61.887 26.372"><defs><style>.a{fill:none;}.b{clip-path:url(#a);}.c{clip-path:url(#b);}.d{clip-path:url(#c);}.e{fill:#d3573d;}</style><clipPath id="a"><path class="a" d="M106.8-699.969l2.74-9.1,2.74,9.1h3.235l3.689-14.463h-3.729l-1.9,9.21-2.633-9.21h-2.794l-2.647,9.2-1.885-9.2H99.887l3.689,14.463Zm18.392,0v-14.463h-3.876v14.463Zm14.69,0v-3.114h-7.071l6.857-9.062v-2.286H128.077v3.128h6.6l-6.8,8.982v2.352Zm6.5,0V-720.5H142.5v20.531Zm4.986,5.841a4.408,4.408,0,0,0,4.277-2.834h0l.321-.762,5.814-16.708H157.63l-2.673,9-2.687-9h-4.157l5.066,14.5-.454,1.19a2.2,2.2,0,0,1-.849,1.109,3.178,3.178,0,0,1-1.637.334h0l-.588-.013v2.927A6.078,6.078,0,0,0,151.361-694.128Z" transform="translate(-99.887 720.5)"/></clipPath><clipPath id="b"><path class="a" d="M0-779.719H70.458V-814H0Z" transform="translate(0 814)"/></clipPath><clipPath id="c"><path class="a" d="M605.421-708.569a2.194,2.194,0,0,0,1.571-.561,1.9,1.9,0,0,0,.595-1.444A1.891,1.891,0,0,0,607-712a2.189,2.189,0,0,0-1.577-.561,2.184,2.184,0,0,0-1.584.561,1.9,1.9,0,0,0-.581,1.43,1.9,1.9,0,0,0,.595,1.444A2.195,2.195,0,0,0,605.421-708.569Z" transform="translate(-603.256 712.565)"/></clipPath></defs><g transform="translate(-99.887 720.5)"><g class="b" transform="translate(99.887 -720.5)"><g class="c" transform="translate(-4.207 -3.938)"><path d="M94.887-725.5h62.308v26.793H94.887Z" transform="translate(-90.891 729.227)"/></g></g><g class="d" transform="translate(121.086 -720.166)"><g class="c" transform="translate(-25.406 -4.272)"><path class="e" d="M598.256-717.565h4.752v4.418h-4.752Z" transform="translate(-573.061 721.627)"/></g></g></g></svg>