<svg xmlns="http://www.w3.org/2000/svg" width="60.871" height="60.871" viewBox="0 0 60.871 60.871"><defs><style>.a{fill:#2c2c52;}</style></defs><g transform="translate(52.755 12.174)"><path class="a" d="M447.792,102.4a4.058,4.058,0,1,0,4.058,4.058A4.062,4.062,0,0,0,447.792,102.4Zm0,6.087a2.029,2.029,0,1,1,2.029-2.029A2.031,2.031,0,0,1,447.792,108.487Z" transform="translate(-443.734 -102.4)"/></g><g transform="translate(0 45.653)"><path class="a" d="M4.058,384a4.058,4.058,0,1,0,4.058,4.058A4.062,4.062,0,0,0,4.058,384Zm0,6.087a2.029,2.029,0,1,1,2.029-2.029A2.031,2.031,0,0,1,4.058,390.087Z" transform="translate(0 -384)"/></g><g transform="translate(44.638 9.13)"><path class="a" d="M385.67,81.119l-8.752-4.225a1.014,1.014,0,0,0-.882,1.827l8.752,4.225a1.014,1.014,0,0,0,.882-1.827Z" transform="translate(-375.463 -76.792)"/></g><g transform="translate(37.537 26.377)"><path class="a" d="M326.893,221.867a11.16,11.16,0,1,0,11.16,11.16A11.173,11.173,0,0,0,326.893,221.867Zm0,20.29a9.131,9.131,0,1,1,9.131-9.131A9.14,9.14,0,0,1,326.893,242.157Z" transform="translate(-315.733 -221.867)"/></g><g transform="translate(44.638 30.435)"><path class="a" d="M379.525,256a4.058,4.058,0,1,0,4.058,4.058A4.062,4.062,0,0,0,379.525,256Zm0,6.087a2.029,2.029,0,1,1,2.029-2.029A2.031,2.031,0,0,1,379.525,262.087Z" transform="translate(-375.467 -256)"/></g><g transform="translate(42.609 40.58)"><path class="a" d="M367.43,341.333h-5.886a3.106,3.106,0,0,0-3.144,3.059v2.674a1.015,1.015,0,0,0,.506.879,11.1,11.1,0,0,0,11.162,0,1.013,1.013,0,0,0,.506-.878v-2.674A3.106,3.106,0,0,0,367.43,341.333Zm1.115,5.128a9.2,9.2,0,0,1-8.116,0v-2.068a1.077,1.077,0,0,1,1.115-1.031h5.886a1.077,1.077,0,0,1,1.115,1.031v2.068Z" transform="translate(-358.4 -341.333)"/></g><g transform="translate(13.189 38.551)"><path class="a" d="M122.093,324.267a11.16,11.16,0,1,0,11.16,11.16A11.173,11.173,0,0,0,122.093,324.267Zm0,20.29a9.131,9.131,0,1,1,9.131-9.131A9.14,9.14,0,0,1,122.093,344.557Z" transform="translate(-110.933 -324.267)"/></g><g transform="translate(20.29 42.609)"><path class="a" d="M174.725,358.4a4.058,4.058,0,1,0,4.058,4.058A4.062,4.062,0,0,0,174.725,358.4Zm0,6.087a2.029,2.029,0,1,1,2.029-2.029A2.031,2.031,0,0,1,174.725,364.487Z" transform="translate(-170.667 -358.4)"/></g><g transform="translate(18.261 52.754)"><path class="a" d="M162.63,443.733h-5.886a3.106,3.106,0,0,0-3.144,3.059v2.674a1.015,1.015,0,0,0,.506.879,11.1,11.1,0,0,0,11.162,0,1.013,1.013,0,0,0,.506-.878v-2.674A3.106,3.106,0,0,0,162.63,443.733Zm1.115,5.128a9.2,9.2,0,0,1-8.116,0v-2.069a1.077,1.077,0,0,1,1.115-1.031h5.886a1.077,1.077,0,0,1,1.115,1.031v2.069Z" transform="translate(-153.6 -443.733)"/></g><g transform="translate(11.259 15.861)"><path class="a" d="M63.792,145.067a4.058,4.058,0,1,0,4.058,4.058A4.062,4.062,0,0,0,63.792,145.067Zm0,6.087a2.029,2.029,0,1,1,2.029-2.029A2.031,2.031,0,0,1,63.792,151.154Z" transform="translate(-59.734 -145.067)"/></g><g transform="translate(24.348)"><path class="a" d="M215.96,0a11.16,11.16,0,1,0,11.16,11.16A11.173,11.173,0,0,0,215.96,0Zm0,20.29a9.131,9.131,0,1,1,9.131-9.131A9.14,9.14,0,0,1,215.96,20.29Z" transform="translate(-204.8)"/></g><g transform="translate(31.45 4.058)"><path class="a" d="M268.592,34.133a4.058,4.058,0,1,0,4.058,4.058A4.062,4.062,0,0,0,268.592,34.133Zm0,6.087a2.029,2.029,0,1,1,2.029-2.029A2.031,2.031,0,0,1,268.592,40.22Z" transform="translate(-264.534 -34.133)"/></g><g transform="translate(29.421 14.203)"><path class="a" d="M256.5,119.467h-5.886a3.106,3.106,0,0,0-3.144,3.059V125.2a1.015,1.015,0,0,0,.506.879,11.1,11.1,0,0,0,11.162,0,1.014,1.014,0,0,0,.506-.878v-2.674A3.106,3.106,0,0,0,256.5,119.467Zm1.115,5.128a9.2,9.2,0,0,1-8.116,0v-2.069a1.077,1.077,0,0,1,1.115-1.031H256.5a1.077,1.077,0,0,1,1.115,1.031V124.6Z" transform="translate(-247.467 -119.467)"/></g><g transform="translate(17.319 10.145)"><path class="a" d="M154.487,85.687a1.016,1.016,0,0,0-1.43-.111l-7.031,6.016a1.014,1.014,0,1,0,1.319,1.541l7.031-6.016A1.014,1.014,0,0,0,154.487,85.687Z" transform="translate(-145.671 -85.333)"/></g><g transform="translate(40.58 18.262)"><path class="a" d="M349.246,162.132l-6.087-8.116a1.014,1.014,0,0,0-1.623,1.216l6.087,8.116a1.014,1.014,0,0,0,1.623-1.216Z" transform="translate(-341.333 -153.61)"/></g><g transform="translate(32.674 40.486)"><path class="a" d="M282.326,340.946a1.015,1.015,0,0,0-1.42-.2l-5.667,4.25a1.014,1.014,0,0,0,1.217,1.622l5.667-4.25A1.013,1.013,0,0,0,282.326,340.946Z" transform="translate(-274.833 -340.54)"/></g><g transform="translate(6.087 48.696)"><path class="a" d="M59.316,409.6h-7.1a1.014,1.014,0,0,0,0,2.029h7.1a1.014,1.014,0,0,0,0-2.029Z" transform="translate(-51.2 -409.6)"/></g></svg>