<svg xmlns="http://www.w3.org/2000/svg" width="56.967" height="56.063" viewBox="0 0 56.967 56.063"><defs><style>.a{fill:#fbb04c;}</style></defs><path class="a" d="M156.623,306.843h-4.359a10.225,10.225,0,0,0-14.07,0H129.09a3.8,3.8,0,0,0-3.746,3.169l-8.275-2.759a3.852,3.852,0,0,0-5.07,3.654v.062a3.847,3.847,0,0,0,1.784,3.265l16.481,10.488a9.28,9.28,0,0,0,7.326,1.143L152,322.073h4.624a.949.949,0,0,0,.949-.949V307.793A.949.949,0,0,0,156.623,306.843Zm-.949,13.331h-3.8a.948.948,0,0,0-.241.031l-14.528,3.823a7.382,7.382,0,0,1-5.823-.908L114.8,312.633a1.958,1.958,0,0,1-.9-1.663v-.062a1.947,1.947,0,0,1,2.57-1.853l9.111,3.038a3.793,3.793,0,0,0,3.51,2.345h9.494a.949.949,0,1,0,0-1.9H129.09a1.9,1.9,0,0,1-1.84-1.429v0a1.9,1.9,0,0,1,1.84-2.367h9.494a.95.95,0,0,0,.671-.278l.1-.1a8.323,8.323,0,0,1,11.757,0l.1.1a.95.95,0,0,0,.672.278h3.8Z" transform="translate(-100.606 -270.105)"/><path class="a" d="M31.848,43.164l.046.011a9.032,9.032,0,0,0,1.9.2l.131,0a3.327,3.327,0,0,0,3.532,1.784l1.123-.191a3.046,3.046,0,0,0,2.263.509l2.271-.386a4.289,4.289,0,0,0,.719.955l6.86,6.86a.949.949,0,0,0,1.343,0l6.86-6.86A4.273,4.273,0,1,0,52.856,40l-1.489,1.489-.4-.4a3.941,3.941,0,0,0,.861-4.873.946.946,0,0,0,.056-.176l.394-1.832a5.247,5.247,0,0,0-1.163-4.524L47.6,25.639a5.209,5.209,0,0,0-4.041-1.8l-14.348.273-11.836-5.9a.949.949,0,0,0-1.373.85V33.307a.949.949,0,0,0,.558.865l7.387,3.337,1.426,1.75A11.25,11.25,0,0,0,31.7,43.134Zm4.272-.088a9.072,9.072,0,0,0,1.164-.394,3.071,3.071,0,0,0,.1.564l-.24.041a1.429,1.429,0,0,1-1.021-.211Zm4.406.53a1.152,1.152,0,0,1-1.162-.511,1.2,1.2,0,0,1-.125-1.037,1.049,1.049,0,0,1,.336-.493l.911-.454,2.417.295a4.272,4.272,0,0,0-.32,1.62c0,.077,0,.154.006.23Zm10.169-.1a.949.949,0,0,0,1.343,0l2.16-2.16A2.374,2.374,0,0,1,57.556,44.7l-6.189,6.188L45.179,44.7a2.371,2.371,0,0,1-.256-3.052l2.992.365a3.974,3.974,0,0,0,1.246-.045ZM26.844,38.059l-1.568-1.923a.947.947,0,0,0-.345-.265L17.9,32.694V20.6l10.671,5.32a.992.992,0,0,0,.442.1l14.581-.278h.064a3.314,3.314,0,0,1,2.508,1.144l3.516,4.047a3.339,3.339,0,0,1,.74,2.879l-.181.842a3.943,3.943,0,0,0-1.023-.373l-1.73-.373.2-.928a.949.949,0,0,0-1.856-.4l-.2.928-1.359-.293L43.2,30.5a.949.949,0,0,0-1.766.7l.605,1.534L40.046,32.3a.949.949,0,1,0-.4,1.856l9.171,1.975a2.028,2.028,0,0,1-.673,4l-7.711-.941a.95.95,0,0,0-.539.093l-.731.364-.007,0a2.7,2.7,0,0,0-.568.285L37,40.726a7.2,7.2,0,0,1-4.65.606c-.027-.008-.054-.014-.082-.019l-.173-.036a9.343,9.343,0,0,1-5.256-3.218Z" transform="translate(-16 -18.116)"/></svg>