<svg xmlns="http://www.w3.org/2000/svg" width="58.024" height="56.864" viewBox="0 0 58.024 56.864"><defs><style>.a{fill:#d4583d;}</style></defs><g transform="translate(43.204 30.088)"><path class="a" d="M385.906,270.613a.844.844,0,0,0-.844.844,1.072,1.072,0,1,1-2.144,0,.844.844,0,0,0-1.689,0,2.761,2.761,0,1,0,5.522,0A.844.844,0,0,0,385.906,270.613Z" transform="translate(-381.228 -270.613)"/></g><g transform="translate(0 0)"><path class="a" d="M55.808,35.341l-2.377-.761a.994.994,0,0,1-.642-.65,15.324,15.324,0,0,0-2.247-4.444,16.307,16.307,0,0,0-1.5-1.771,20.945,20.945,0,0,0,.517-4.783c-.035-2.152-.465-3.413-1.314-3.858-.457-.24-1.849-.968-9.381,2.48a2.741,2.741,0,0,0-.5.3c-.508-.136-1.027-.263-1.549-.376l-.191-.039a11.5,11.5,0,0,0,1.034-4.277.844.844,0,0,0-1.687-.076,9.825,9.825,0,0,1-6.428,8.785,24.488,24.488,0,0,0-6.8,0A9.833,9.833,0,1,1,34.932,12.217a.844.844,0,0,0,1.509-.76A11.526,11.526,0,1,0,20.027,26.411h0q-.788.2-1.561.462a.845.845,0,0,0,.535,1.6,22.662,22.662,0,0,1,14.283,0,.845.845,0,0,0,.535-1.6q-.773-.258-1.561-.462h0a11.514,11.514,0,0,0,3.505-3.427c.233.045.464.093.692.142q.455.1.9.211c-.009.037-.019.073-.027.111a10.071,10.071,0,0,0,.079,5.137,6.113,6.113,0,0,0,2.239,3.148,7.1,7.1,0,0,0,4.156,1.319,5.572,5.572,0,0,0,2.694-.623,5.142,5.142,0,0,0,1.985-2.819q.365.426.691.873a13.635,13.635,0,0,1,2,3.955,2.686,2.686,0,0,0,1.738,1.752l2.377.761a1.5,1.5,0,0,1,1.043,1.429v3.941a1.5,1.5,0,0,1-1.043,1.429l-3.829,1.227A2.609,2.609,0,0,0,50,46.16a16.831,16.831,0,0,1-7.03,6.395,1.323,1.323,0,0,0-.694.933l-1.226,6.494a.38.38,0,0,1-.373.309H36.692a.38.38,0,0,1-.373-.309l-.679-3.589a1.327,1.327,0,0,0-1.509-1.067,35.3,35.3,0,0,1-5.26.391A33.666,33.666,0,0,1,25,55.5a1.338,1.338,0,0,0-1.463,1.073l-.646,3.41a.38.38,0,0,1-.373.309H18.531a.38.38,0,0,1-.373-.311l-1.181-6.134a1.326,1.326,0,0,0-.681-.922,14.914,14.914,0,0,1-8.236-13.9A16.233,16.233,0,0,1,10.1,30.774a14.733,14.733,0,0,1,5.488-5.358.844.844,0,0,0-.846-1.462A16.073,16.073,0,0,0,6.588,35.96h0l-.244-.023a4.2,4.2,0,0,0-.309-1.685,3.459,3.459,0,0,0-2.564-2.239,2.334,2.334,0,0,0-2.2.979,2.224,2.224,0,0,0-.422,2.426c.425.876,1.519,1.5,3.333,1.886q-.075.112-.165.225A4.144,4.144,0,0,1,.864,39.2.887.887,0,0,0,0,40.081v0a.884.884,0,0,0,.847.882q.091,0,.19,0a5.485,5.485,0,0,0,4.3-2.389,4.816,4.816,0,0,0,.617-1q.239.027.459.047h0c-.029.458-.045.922-.045,1.394a17.4,17.4,0,0,0,2.491,9.319,17.072,17.072,0,0,0,6.489,5.987L16.5,60.3a2.07,2.07,0,0,0,2.032,1.684h3.988A2.07,2.07,0,0,0,24.551,60.3l.584-3.083a35.587,35.587,0,0,0,3.736.193,37.1,37.1,0,0,0,5.174-.361L34.66,60.3a2.07,2.07,0,0,0,2.032,1.683h3.988A2.07,2.07,0,0,0,42.711,60.3l1.194-6.323a18.411,18.411,0,0,0,7.559-6.967.923.923,0,0,1,.513-.423l3.829-1.227a3.179,3.179,0,0,0,2.216-3.037V38.378A3.179,3.179,0,0,0,55.808,35.341ZM47.742,25.305c-.325,2.779-1.2,5.157-2.073,5.653a5.167,5.167,0,0,1-5.021-.59c-1.728-1.264-2.3-3.537-1.663-6.574h0a1.019,1.019,0,0,1,.58-.705c4.228-1.935,6.665-2.568,7.57-2.568a.883.883,0,0,1,.306.041C47.714,20.852,48.071,22.5,47.742,25.305ZM2.371,34.681c-.087-.18.119-.5.25-.67a.674.674,0,0,1,.542-.33.634.634,0,0,1,.085.006,1.84,1.84,0,0,1,1.22,1.2,2.564,2.564,0,0,1,.177.8C3.476,35.437,2.568,35.087,2.371,34.681Z" transform="translate(0 -5.115)"/></g><g transform="translate(22.988 5.422)"><path class="a" d="M206.82,58.095V55.073c1.042.074,1.429.551,1.786.551.447,0,.655-.566.655-.848,0-.729-1.429-1.042-2.441-1.072v-.4c0-.179-.223-.342-.447-.342a.393.393,0,0,0-.432.342v.432c-1.414.149-2.828.893-2.828,2.769,0,1.905,1.489,2.441,2.828,2.918v3.5c-1.518-.119-1.92-1.161-2.412-1.161-.372,0-.685.491-.685.849,0,.729,1.25,1.727,3.1,1.757h0v.461a.393.393,0,0,0,.432.342c.223,0,.447-.164.447-.342v-.506a2.884,2.884,0,0,0,2.709-3.067C209.529,59.226,208.115,58.571,206.82,58.095Zm-.789-.283c-.789-.3-1.429-.61-1.429-1.459,0-.774.6-1.146,1.429-1.25Zm.7,5.076V59.747a1.741,1.741,0,0,1,1.31,1.667A1.416,1.416,0,0,1,206.73,62.888Z" transform="translate(-202.845 -52.959)"/></g></svg>